<?xml version="1.0" encoding="UTF-8" standalone="no"?>
<!DOCTYPE svg PUBLIC "-//W3C//DTD SVG 1.1//EN" "http://www.w3.org/Graphics/SVG/1.1/DTD/svg11.dtd">
<svg width="100%" height="100%" viewBox="0 0 1139 284" version="1.1" xmlns="http://www.w3.org/2000/svg" xmlns:xlink="http://www.w3.org/1999/xlink" xml:space="preserve" xmlns:serif="http://www.serif.com/" style="fill-rule:evenodd;clip-rule:evenodd;stroke-linejoin:round;stroke-miterlimit:2;">
    <g transform="matrix(1,0,0,1,-6853.748739,-210.701478)">
        <g transform="matrix(1,0,0,1,6423.237507,0)">
            <g transform="matrix(3.337372,0,0,3.337372,-1771.220243,-273.658424)">
                <g transform="matrix(2.465424,0,0,2.465424,-6459.36431,23.465233)">
                    <path d="M2897.805,61.849L2897.77,61.849L2897.77,75.449C2897.77,77.149 2898.62,77.999 2900.32,77.999L2902.32,77.999L2902.32,82.999L2898.07,82.999C2896.103,82.999 2894.453,82.526 2893.12,81.578C2891.787,80.63 2891.12,79.059 2891.12,76.864L2891.12,61.849L2887.57,61.849L2887.57,57.349L2891.12,57.349L2891.12,49.349L2897.77,49.349L2897.77,57.349L2897.83,57.349C2907.007,57.307 2908.906,56.766 2913.215,59.398C2913.424,59.525 2913.638,59.649 2913.856,59.774C2915.905,58.603 2918.179,57.789 2920.181,57.408C2923.377,56.801 2928,56.627 2934.675,56.769C2934.91,56.762 2935.149,56.758 2935.392,56.758C2942.626,56.758 2946.242,59.908 2946.242,66.208L2946.242,79.258C2946.242,81.192 2946.542,82.375 2947.142,82.808L2947.142,83.058L2940.592,83.058C2940.259,82.625 2939.992,81.675 2939.792,80.208L2939.692,80.208C2938.959,81.308 2938.026,82.158 2936.892,82.758C2935.759,83.358 2934.176,83.658 2932.142,83.658C2929.442,83.658 2927.276,82.975 2925.642,81.608C2924.009,80.242 2923.192,78.308 2923.192,75.808C2923.192,73.208 2924.092,71.3 2925.892,70.083C2927.692,68.867 2930.226,68.025 2933.492,67.558C2935.892,67.225 2937.526,66.883 2938.392,66.533C2939.259,66.183 2939.692,65.558 2939.692,64.658C2939.692,63.725 2939.326,62.983 2938.592,62.433C2937.859,61.883 2936.792,61.608 2935.392,61.608C2935.319,61.608 2935.244,61.608 2935.167,61.607L2935.167,61.61C2928.67,61.427 2924.041,61.563 2920.96,62.148C2919.954,62.34 2918.864,62.58 2917.787,62.985C2918.117,63.419 2918.442,63.914 2918.76,64.484C2920.588,67.757 2921.061,75.52 2918.99,80.081C2917.802,82.697 2915.629,83.55 2913.223,83.599C2909.658,83.673 2907.63,82.097 2906.802,78.549C2905.858,74.505 2906.806,68.961 2908.372,65.739C2908.896,64.66 2909.494,63.728 2910.147,62.921C2906.789,61.135 2905.112,61.977 2897.805,61.849ZM2914.227,66.713C2912.41,66.488 2910.733,69.553 2910.319,72.89C2909.906,76.226 2910.91,79.091 2912.728,79.317C2914.545,79.542 2916.221,77.016 2916.635,73.68C2917.049,70.343 2916.044,66.938 2914.227,66.713ZM2933.792,78.908C2935.659,78.908 2937.134,78.425 2938.217,77.458C2939.301,76.492 2939.842,75.342 2939.842,74.008L2939.842,70.158C2939.109,70.592 2937.526,71.092 2935.092,71.658C2933.159,72.092 2931.792,72.583 2930.992,73.133C2930.192,73.683 2929.792,74.525 2929.792,75.658C2929.792,77.825 2931.126,78.908 2933.792,78.908Z" style="fill:rgb(13,143,210);"/>
                </g>
                <g transform="matrix(1,0,0,1,1,0)">
                    <g transform="matrix(2.422641,0,0,2.422641,-6335.685756,27.050821)">
                        <path d="M2957.692,57.408L2957.692,60.908L2957.842,60.908C2959.609,58.108 2962.142,56.708 2965.442,56.708C2968.076,56.708 2970.209,57.6 2971.842,59.383C2973.476,61.167 2974.292,63.475 2974.292,66.308L2974.292,83.058L2967.492,83.058L2967.492,67.308C2967.492,65.908 2967.101,64.775 2966.317,63.908C2965.534,63.042 2964.442,62.608 2963.042,62.608C2961.542,62.608 2960.301,63.158 2959.317,64.258C2958.334,65.358 2957.842,66.775 2957.842,68.508L2957.842,83.058L2951.042,83.058L2951.042,57.408L2957.692,57.408Z" style="fill:rgb(13,143,210);fill-rule:nonzero;"/>
                    </g>
                    <g transform="matrix(2.422641,0,0,2.422641,-6339.467318,27.050821)">
                        <path d="M3001.292,79.933C2998.792,82.517 2995.576,83.808 2991.642,83.808C2987.709,83.808 2984.492,82.517 2981.992,79.933C2979.492,77.35 2978.242,74.125 2978.242,70.258C2978.242,66.392 2979.492,63.167 2981.992,60.583C2984.492,58 2987.709,56.708 2991.642,56.708C2995.576,56.708 2998.792,58 3001.292,60.583C3003.792,63.167 3005.042,66.392 3005.042,70.258C3005.042,74.125 3003.792,77.35 3001.292,79.933ZM2993.551,60.635C2990.516,60.034 2987.197,63.865 2986.144,69.184C2985.09,74.503 2986.699,79.31 2989.734,79.911C2992.769,80.512 2996.088,76.681 2997.141,71.362C2998.194,66.043 2996.586,61.236 2993.551,60.635Z" style="fill:rgb(13,143,210);"/>
                    </g>
                    <g transform="matrix(2.422641,0,0,2.422641,-6342.64237,27.050821)">
                        <path d="M3004.892,83.058L3014.242,69.458L3005.892,57.408L3013.642,57.408L3018.192,64.758L3018.292,64.758L3022.592,57.408L3029.642,57.408L3021.692,69.408L3030.842,83.058L3022.742,83.058L3017.992,74.558L3017.892,74.558L3012.342,83.058L3004.892,83.058Z" style="fill:rgb(13,143,210);fill-rule:nonzero;"/>
                    </g>
                </g>
            </g>
        </g>
    </g>
</svg>
